<?xml version="1.0" standalone="no"?>
<!DOCTYPE svg PUBLIC "-//W3C//DTD SVG 20010904//EN"
 "http://www.w3.org/TR/2001/REC-SVG-20010904/DTD/svg10.dtd">
<svg version="1.0" xmlns="http://www.w3.org/2000/svg"
 width="700.000000pt" height="700.000000pt" viewBox="0 0 700.000000 700.000000"
 preserveAspectRatio="xMidYMid meet">
<metadata>
Created by potrace 1.14, written by Peter Selinger 2001-2017
</metadata>
<g transform="translate(0.000000,700.000000) scale(0.100000,-0.100000)"
fill="#000000" stroke="none">
<path d="M2978 6803 l-3 -196 -60 -14 c-161 -37 -386 -134 -533 -230 -384
-252 -655 -649 -825 -1213 -44 -146 -110 -447 -131 -600 -19 -134 -36 -288
-41 -365 -4 -49 -8 -101 -10 -115 -8 -50 -17 -370 -17 -580 -1 -278 17 -663
37 -830 3 -19 9 -75 15 -125 57 -473 167 -875 323 -1180 35 -69 149 -250 166
-265 3 -3 30 -34 60 -70 123 -147 293 -293 476 -407 104 -66 282 -142 435
-188 l105 -31 3 -197 2 -197 520 0 520 0 0 195 0 194 43 12 c312 86 478 168
705 347 399 314 682 901 797 1652 4 25 9 52 10 60 2 8 6 44 10 80 3 36 8 72
10 80 8 31 18 155 41 485 7 100 7 659 0 780 -8 143 -17 277 -21 315 -2 19 -7
64 -10 100 -3 36 -13 112 -22 170 -8 58 -16 112 -17 120 -36 271 -138 650
-241 890 -165 387 -415 694 -726 893 -137 87 -407 201 -528 222 -19 3 -38 8
-43 11 -4 3 -8 93 -8 200 l0 194 -520 0 -520 0 -2 -197z m2 -3308 l0 -2114
-45 30 c-245 166 -432 558 -480 1009 -4 36 -9 72 -10 81 -2 9 -6 52 -10 95 -4
43 -8 95 -10 114 -20 193 -33 940 -20 1205 10 206 21 385 30 460 3 22 7 63 10
90 63 564 205 908 453 1094 37 28 70 51 75 51 4 0 7 -952 7 -2115z m1107 2074
c270 -209 433 -612 478 -1184 3 -38 8 -80 10 -92 26 -123 26 -1376 0 -1573 -2
-19 -9 -82 -15 -140 -20 -198 -27 -248 -57 -390 -8 -41 -17 -86 -20 -100 -9
-52 -77 -238 -110 -305 -56 -111 -127 -216 -185 -271 -59 -57 -144 -124 -159
-124 -5 0 -9 827 -9 2110 0 1161 3 2110 7 2110 3 0 30 -19 60 -41z"/>
</g>
</svg>
